<?xml version="1.0" standalone="no"?>
<!DOCTYPE svg PUBLIC "-//W3C//DTD SVG 20010904//EN"
 "http://www.w3.org/TR/2001/REC-SVG-20010904/DTD/svg10.dtd">
<svg version="1.0" xmlns="http://www.w3.org/2000/svg"
 width="260.000000pt" height="260.000000pt" viewBox="0 0 260.000000 260.000000"
 preserveAspectRatio="xMidYMid meet">
<metadata>
Created by potrace 1.14, written by Peter Selinger 2001-2017
</metadata>
<g transform="translate(0.000000,260.000000) scale(0.100000,-0.100000)"
fill="#000000" stroke="none">
<path d="M1180 2588 c-47 -4 -96 -10 -110 -14 -14 -3 -38 -8 -55 -11 -44 -7
-200 -61 -264 -91 -385 -179 -663 -554 -731 -987 -15 -91 -15 -281 -1 -370 70
-436 334 -795 723 -982 111 -53 245 -95 344 -109 27 -3 58 -8 69 -11 31 -6
256 -5 311 2 202 26 415 111 587 234 481 342 669 978 451 1524 -215 539 -743
864 -1324 815z"/>
</g>
</svg>
